# xmcd CD database file
#
# Track frame offsets:
#	150
#	2885
#	22232
#	32990
#	46345
#	64797
#	80795
#	89702
#	97475
#	109905
#	122100
#	137137
#	146777
#	167122
#	183060
#	194485
#	210030
#	225120
#	232295
#	248500
#	265917
#
# Disc length: 3638 seconds
#
# Revision: 4
# Processed by: cddbd v1.5.1PL0 Copyright (c) Steve Scherf et al.
# Submitted via: CDex 1.51
#
DISCID=340e3415
DTITLE=Mauro Longordo - Gustavo Caldas - Retrospection
DYEAR=1996
DGENRE=Jazz
TTITLE0=Aperture
TTITLE1=Night an Day
TTITLE2=Musing (Ausencia)
TTITLE3=Insensatez
TTITLE4=My Foolish Heart
TTITLE5=Homecoming
TTITLE6=Ripples
TTITLE7=Nos e o mar
TTITLE8=Lover's Lament (tristeza de quem ama)
TTITLE9=Will'o the wisp
TTITLE10=Lazy Sunday (canto do mar)
TTITLE11=Old friends
TTITLE12=When I fall in love
TTITLE13=My little boat (O barquinho)
TTITLE14=Days Gone by
TTITLE15=I love you
TTITLE16=Wistful Thinking
TTITLE17=Jer trails
TTITLE18=Chasing Butterflies
TTITLE19=Tenderly
TTITLE20=Stellar Doorway
EXTD=YEAR: 1996
EXTT0=
EXTT1=
EXTT2=
EXTT3=
EXTT4=
EXTT5=
EXTT6=
EXTT7=
EXTT8=
EXTT9=
EXTT10=
EXTT11=
EXTT12=
EXTT13=
EXTT14=
EXTT15=
EXTT16=
EXTT17=
EXTT18=
EXTT19=
EXTT20=
PLAYORDER=
